<svg xmlns="http://www.w3.org/2000/svg" width="44" height="32" viewBox="0 0 44 32">
    <g fill="none" fill-rule="evenodd">
        <path fill="#9EBED3" d="M20.949 8.296h-9.184c-.765 0-1.53.222-2.126.696-.587.467-1.315 1.23-1.315 2.465 0 .863.325 1.493.678 1.953a2.928 2.928 0 0 0 1.645.487h10.302v-5.6z"/>
        <path fill="#E2F3FE" d="M22.595 8.296h9.183c.765 0 1.53.222 2.126.696.588.467 1.315 1.23 1.315 2.465 0 .863-.325 1.493-.677 1.953a2.928 2.928 0 0 1-1.645.487H22.595v-5.6z"/>
        <path fill="#89B1CB" d="M21.418 16.826h-.725v4.642H10.097s-.045.002-.132.002c-.718 0-4.225-.123-6.857-2.436 2.666 3.01 6.796 3.157 7.584 3.157l.13-.001h10.596v-5.364zm0-15.517h-.725v4.643H10.291S5.86 6.335 5.86 11.03c0 2.146.845 3.39 1.762 4.108-.593-.75-1.037-1.831-1.037-3.387 0-4.694 4.431-5.077 4.431-5.077h10.402V1.309zM32.33 5.952h-8.985v.721h9.71c.913 0 1.827.19 2.632.62.3.16.62.36.93.613-.501-.619-1.11-1.044-1.656-1.334-.804-.43-1.718-.62-2.63-.62m8.44-1.848c1.422 1.584 2.461 3.881 2.461 7.212 0 9.82-8.705 10.154-9.885 10.154l-.132-.001h-5.01l-.14 7.14a2.69 2.69 0 0 1-2.696 2.63h-.054c-.557 0-1.078-.17-1.509-.46a2.7 2.7 0 0 0 2.236 1.18h.053a2.69 2.69 0 0 0 2.695-2.629l.14-7.14h5.01l.132.001c1.181 0 9.886-.334 9.886-10.154 0-3.875-1.407-6.35-3.188-7.933"/>
        <path fill="#0070B7" d="M20.693.588h-10.21S.08.78.08 11.316s10.016 10.153 10.016 10.153h10.596v-5.364H9.905S5.86 15.724 5.86 11.03c0-4.694 4.431-5.077 4.431-5.077h10.402V.588zM22.62.588h10.21S43.232.78 43.232 11.316 33.216 21.469 33.216 21.469h-5.01l-.141 7.14a2.69 2.69 0 0 1-2.695 2.63c-1.544 0-2.75-1.202-2.75-2.683v-12.45h10.11c.956 0 1.909-.246 2.701-.779 1.01-.682 2.227-1.95 2.227-4.298 0-2.543-1.505-3.82-2.698-4.457-.804-.43-1.717-.62-2.63-.62h-9.71V.588z"/>
    </g>
</svg>
